<svg width="97.205566" height="60.253906" viewBox="0 0 97.0337 60.2539" fill="none" xmlns="http://www.w3.org/2000/svg" xmlns:xlink="http://www.w3.org/1999/xlink">
	<desc>
			Created with Pixso.
	</desc>
	<defs/>
	<path id="01" d="M46.97 29.94C46.95 49.12 38.12 60.25 23.47 60.25C8.82 60.23 -0.06 49.06 0 29.94C0.02 10.87 8.88 0 23.47 0C38.06 0 47.01 10.91 46.97 29.94ZM69.47 0.8L81.03 0.8L81.03 58.98L68.74 58.98L68.74 12.48L68.39 12.48L55.07 20.83L55.07 9.92L69.47 0.8ZM12.52 29.94C12.5 43.35 16.81 50.05 23.47 50.05C30.13 50.05 34.45 43.35 34.41 29.94C34.41 16.73 30.09 10.09 23.47 10.09C16.83 10.09 12.53 16.73 12.52 29.94Z" fill="#467DD0" fill-opacity="1.000000" fill-rule="evenodd"/>
</svg>
