<svg width="97.205566" height="60.253906" viewBox="0 0 97.2056 60.2539" fill="none" xmlns="http://www.w3.org/2000/svg" xmlns:xlink="http://www.w3.org/1999/xlink">
	<desc>
			Created with Pixso.
	</desc>
	<defs/>
	<path id="02" d="M46.97 29.94C46.95 49.12 38.12 60.25 23.47 60.25C8.82 60.23 -0.06 49.06 0 29.94C0.02 10.87 8.88 0 23.47 0C38.06 0 47.01 10.91 46.97 29.94ZM97.2 58.98L55.72 58.98L55.72 50.11L76.44 30.93C81.71 25.85 84.56 22.67 84.56 18.04C84.56 12.92 80.76 9.74 75.64 9.74C70.33 9.74 66.81 13.16 66.83 18.73L55.15 18.73C55.13 7.3 63.51 0 75.72 0C88.2 0 96.44 7.12 96.44 17.22C96.44 23.84 93.22 29.29 81.26 40.21L72.77 48.53L72.77 48.92L97.2 48.92L97.2 58.98ZM12.52 29.94C12.5 43.35 16.81 50.05 23.47 50.05C30.13 50.05 34.45 43.35 34.41 29.94C34.41 16.73 30.09 10.09 23.47 10.09C16.83 10.09 12.53 16.73 12.52 29.94Z" fill="#467DD0" fill-opacity="1.000000" fill-rule="evenodd"/>
</svg>
