<svg width="99.627441" height="60.253906" viewBox="0 0 99.6274 60.2539" fill="none" xmlns="http://www.w3.org/2000/svg" xmlns:xlink="http://www.w3.org/1999/xlink">
	<desc>
			Created with Pixso.
	</desc>
	<defs/>
	<path id="03" d="M46.97 29.94C46.95 49.12 38.12 60.25 23.47 60.25C8.82 60.23 -0.06 49.06 0 29.94C0.02 10.87 8.88 0 23.47 0C38.06 0 47.01 10.91 46.97 29.94ZM99.62 42.65C99.64 52.59 90.31 59.78 77.24 59.78C64.45 59.78 55.36 52.71 55.15 42.53L67.55 42.53C67.77 46.79 71.83 49.62 77.26 49.62C82.88 49.62 86.87 46.46 86.83 41.81C86.87 37.12 82.75 33.84 76.15 33.84L70.72 33.84L70.72 24.8L76.15 24.8C81.75 24.8 85.64 21.71 85.62 17.12C85.64 12.75 82.32 9.74 77.34 9.74C72.32 9.74 68.26 12.61 68.12 17.05L56.32 17.05C56.5 6.99 65.46 0 77.4 0C89.45 0 97.49 7.22 97.45 16.4C97.49 22.92 93 27.53 86.5 28.69L86.5 29.16C95.05 30.23 99.64 35.41 99.62 42.65ZM12.52 29.94C12.5 43.35 16.81 50.05 23.47 50.05C30.13 50.05 34.45 43.35 34.41 29.94C34.41 16.73 30.09 10.09 23.47 10.09C16.83 10.09 12.53 16.73 12.52 29.94Z" fill="#467DD0" fill-opacity="1.000000" fill-rule="evenodd"/>
</svg>
