<svg width="101.756348" height="60.253906" viewBox="0 0 101.756 60.2539" fill="none" xmlns="http://www.w3.org/2000/svg" xmlns:xlink="http://www.w3.org/1999/xlink">
	<desc>
			Created with Pixso.
	</desc>
	<defs/>
	<path id="04" d="M46.97 29.94C46.95 49.12 38.12 60.25 23.47 60.25C8.82 60.23 -0.06 49.06 0 29.94C0.02 10.87 8.88 0 23.47 0C38.06 0 47.01 10.91 46.97 29.94ZM82.77 48.75L54.84 48.75L54.84 39.06L79.13 0.8L94.53 0.8L94.53 38.9L101.75 38.9L101.75 48.75L94.53 48.75L94.53 58.98L82.77 58.98L82.77 48.75ZM12.52 29.94C12.5 43.35 16.81 50.05 23.47 50.05C30.13 50.05 34.45 43.35 34.41 29.94C34.41 16.73 30.09 10.09 23.47 10.09C16.83 10.09 12.53 16.73 12.52 29.94ZM67.24 38.9L83 38.9L83 14.21L82.55 14.21L67.24 38.43L67.24 38.9Z" fill="#DFE5F0" fill-opacity="1.000000" fill-rule="evenodd"/>
</svg>
