<svg width="98.709961" height="60.253906" viewBox="0 0 98.71 60.2539" fill="none" xmlns="http://www.w3.org/2000/svg" xmlns:xlink="http://www.w3.org/1999/xlink">
	<desc>
			Created with Pixso.
	</desc>
	<defs/>
	<path id="05" d="M46.97 29.94C46.95 49.12 38.12 60.25 23.47 60.25C8.82 60.23 -0.06 49.06 0 29.94C0.02 10.87 8.88 0 23.47 0C38.06 0 47.01 10.91 46.97 29.94ZM98.7 39.58C98.74 51.34 89.94 59.78 76.97 59.78C64.94 59.78 56.15 52.59 55.93 42.53L67.86 42.53C68.14 47.05 72.08 50.11 76.97 50.11C82.75 50.11 86.87 45.93 86.87 39.9C86.87 33.78 82.65 29.55 76.81 29.53C73.37 29.53 69.9 31.03 68.12 33.43L57.18 31.48L59.94 0.8L95.5 0.8L95.5 10.85L70.07 10.85L68.57 25.42L68.9 25.42C70.95 22.55 75.36 20.42 80.46 20.42C90.95 20.42 98.74 28.43 98.7 39.58ZM12.52 29.94C12.5 43.35 16.81 50.05 23.47 50.05C30.13 50.05 34.45 43.35 34.41 29.94C34.41 16.73 30.09 10.09 23.47 10.09C16.83 10.09 12.53 16.73 12.52 29.94Z" fill="#DFE5F0" fill-opacity="1.000000" fill-rule="evenodd"/>
</svg>
