<svg width="99.822754" height="60.253906" viewBox="0 0 99.8228 60.2539" fill="none" xmlns="http://www.w3.org/2000/svg" xmlns:xlink="http://www.w3.org/1999/xlink">
	<desc>
			Created with Pixso.
	</desc>
	<defs/>
	<path id="06" d="M46.97 29.94C46.95 49.12 38.12 60.25 23.47 60.25C8.82 60.23 -0.06 49.06 0 29.94C0.02 10.87 8.88 0 23.47 0C38.06 0 47.01 10.91 46.97 29.94ZM99.82 39.49C99.84 51.34 91.01 59.84 78.06 59.78C66.09 59.72 54.78 52.5 54.82 31.19C54.88 11.66 64.11 0 78.49 0C90.09 0 98.06 7.48 99.21 17.05L87.08 17.05C86.15 12.98 82.94 10.54 78.49 10.54C70.89 10.54 66.93 17.59 66.87 28.92L67.26 28.92C69.88 23.78 75.52 20.72 81.93 20.72C92.24 20.72 99.84 28.59 99.82 39.49ZM12.52 29.94C12.5 43.35 16.81 50.05 23.47 50.05C30.13 50.05 34.45 43.35 34.41 29.94C34.41 16.73 30.09 10.09 23.47 10.09C16.83 10.09 12.53 16.73 12.52 29.94ZM68.12 39.86C68.12 45.54 72.32 50.11 78 50.11C83.69 50.11 87.9 45.66 87.88 39.84C87.9 34.06 83.76 29.6 78.08 29.6C72.44 29.6 68.14 34.21 68.12 39.86Z" fill="#DFE5F0" fill-opacity="1.000000" fill-rule="evenodd"/>
</svg>
