<svg width="50" height="50" viewBox="0 0 50 50" fill="none" xmlns="http://www.w3.org/2000/svg">
<g filter="url(#filter0_b_348_1208)">
<rect x="0.5" y="0.5" width="49" height="49" rx="24.5" stroke="#467DD0"/>
<path d="M15.0286 22.04C15.0286 21.2533 15.1419 20.5467 15.3686 19.92C15.6086 19.2933 15.9419 18.76 16.3686 18.32C16.7953 17.88 17.3153 17.5467 17.9286 17.32C18.5419 17.08 19.2286 16.96 19.9886 16.96C20.7353 16.96 21.4153 17.08 22.0286 17.32C22.6419 17.5467 23.1619 17.8733 23.5886 18.3C24.0153 18.7267 24.3419 19.2467 24.5686 19.86C24.8086 20.4733 24.9286 21.1533 24.9286 21.9V27.06C24.9286 28.7133 24.5086 29.9933 23.6686 30.9C22.8286 31.8067 21.6419 32.26 20.1086 32.26C18.5219 32.26 17.2753 31.8 16.3686 30.88C15.4753 29.96 15.0286 28.6867 15.0286 27.06V22.04ZM17.6886 26.98C17.6886 27.9 17.8886 28.6067 18.2886 29.1C18.6886 29.58 19.2686 29.82 20.0286 29.82C21.5219 29.82 22.2686 28.8933 22.2686 27.04V22.04C22.2686 21.1867 22.0686 20.5333 21.6686 20.08C21.2819 19.6267 20.7286 19.4 20.0086 19.4C19.2886 19.4 18.7219 19.6333 18.3086 20.1C17.8953 20.5667 17.6886 21.2133 17.6886 22.04V26.98ZM26.32 29.66L31.58 24.68C32.1933 24.1067 32.6267 23.5933 32.88 23.14C33.1467 22.6733 33.28 22.2 33.28 21.72C33.28 21.3867 33.2267 21.08 33.12 20.8C33.0133 20.52 32.86 20.28 32.66 20.08C32.4733 19.8667 32.2467 19.7 31.98 19.58C31.7267 19.46 31.4467 19.4 31.14 19.4C30.4467 19.4 29.8867 19.6667 29.46 20.2C29.0467 20.7333 28.84 21.44 28.84 22.32H26.22C26.22 21.4933 26.3333 20.7533 26.56 20.1C26.7867 19.4333 27.1133 18.8733 27.54 18.42C27.9667 17.9533 28.48 17.5933 29.08 17.34C29.6933 17.0867 30.3733 16.96 31.12 16.96C31.8133 16.96 32.4533 17.08 33.04 17.32C33.6267 17.56 34.1333 17.9 34.56 18.34C35 18.7667 35.34 19.2733 35.58 19.86C35.82 20.4467 35.94 21.08 35.94 21.76C35.94 22.2133 35.8933 22.64 35.8 23.04C35.7067 23.4267 35.5467 23.82 35.32 24.22C35.0933 24.6067 34.8 25.0067 34.44 25.42C34.08 25.82 33.6267 26.2667 33.08 26.76L30.06 29.5H35.88V32H26.32V29.66Z" fill="#467DD0"/>
</g>
<defs>
<filter id="filter0_b_348_1208" x="-100" y="-100" width="250" height="250" filterUnits="userSpaceOnUse" color-interpolation-filters="sRGB">
<feFlood flood-opacity="0" result="BackgroundImageFix"/>
<feGaussianBlur in="BackgroundImageFix" stdDeviation="50"/>
<feComposite in2="SourceAlpha" operator="in" result="effect1_backgroundBlur_348_1208"/>
<feBlend mode="normal" in="SourceGraphic" in2="effect1_backgroundBlur_348_1208" result="shape"/>
</filter>
</defs>
</svg>
