<svg width="50" height="50" viewBox="0 0 50 50" fill="none" xmlns="http://www.w3.org/2000/svg">
<g filter="url(#filter0_b_180_24645)">
<rect x="0.5" y="0.5" width="49" height="49" rx="24.5" stroke="#467DD0"/>
<path d="M15.0286 22.04C15.0286 21.2533 15.1419 20.5467 15.3686 19.92C15.6086 19.2933 15.9419 18.76 16.3686 18.32C16.7953 17.88 17.3153 17.5467 17.9286 17.32C18.5419 17.08 19.2286 16.96 19.9886 16.96C20.7353 16.96 21.4153 17.08 22.0286 17.32C22.6419 17.5467 23.1619 17.8733 23.5886 18.3C24.0153 18.7267 24.3419 19.2467 24.5686 19.86C24.8086 20.4733 24.9286 21.1533 24.9286 21.9V27.06C24.9286 28.7133 24.5086 29.9933 23.6686 30.9C22.8286 31.8067 21.6419 32.26 20.1086 32.26C18.5219 32.26 17.2753 31.8 16.3686 30.88C15.4753 29.96 15.0286 28.6867 15.0286 27.06V22.04ZM17.6886 26.98C17.6886 27.9 17.8886 28.6067 18.2886 29.1C18.6886 29.58 19.2686 29.82 20.0286 29.82C21.5219 29.82 22.2686 28.8933 22.2686 27.04V22.04C22.2686 21.1867 22.0686 20.5333 21.6686 20.08C21.2819 19.6267 20.7286 19.4 20.0086 19.4C19.2886 19.4 18.7219 19.6333 18.3086 20.1C17.8953 20.5667 17.6886 21.2133 17.6886 22.04V26.98ZM28.62 27.52C28.7133 28.24 28.9733 28.8067 29.4 29.22C29.8267 29.62 30.3667 29.82 31.02 29.82C31.7 29.82 32.2533 29.5933 32.68 29.14C33.12 28.6733 33.34 28.08 33.34 27.36C33.34 26.6 33.0733 26 32.54 25.56C32.02 25.1067 31.32 24.88 30.44 24.88H30V22.32H30.22C30.8867 22.32 31.3933 22.1933 31.74 21.94C32.1 21.6733 32.28 21.2933 32.28 20.8C32.28 20.3867 32.16 20.0533 31.92 19.8C31.68 19.5333 31.3667 19.4 30.98 19.4C30.2733 19.4 29.86 19.8467 29.74 20.74H27.04C27.1333 19.5667 27.5267 18.6467 28.22 17.98C28.9133 17.3 29.8267 16.96 30.96 16.96C31.5333 16.96 32.06 17.06 32.54 17.26C33.0333 17.46 33.4533 17.74 33.8 18.1C34.16 18.4467 34.44 18.8667 34.64 19.36C34.84 19.84 34.94 20.3667 34.94 20.94C34.94 21.5133 34.84 22.0067 34.64 22.42C34.44 22.82 34.1267 23.1733 33.7 23.48C35.2333 24.1733 36 25.4467 36 27.3C36 28.02 35.8733 28.6867 35.62 29.3C35.38 29.9 35.04 30.42 34.6 30.86C34.16 31.3 33.6333 31.6467 33.02 31.9C32.42 32.14 31.76 32.26 31.04 32.26C30.3333 32.26 29.6733 32.1467 29.06 31.92C28.46 31.68 27.9333 31.3533 27.48 30.94C27.04 30.5133 26.68 30.0133 26.4 29.44C26.1333 28.8533 25.98 28.2133 25.94 27.52H28.62Z" fill="#467DD0"/>
</g>
<defs>
<filter id="filter0_b_180_24645" x="-100" y="-100" width="250" height="250" filterUnits="userSpaceOnUse" color-interpolation-filters="sRGB">
<feFlood flood-opacity="0" result="BackgroundImageFix"/>
<feGaussianBlur in="BackgroundImageFix" stdDeviation="50"/>
<feComposite in2="SourceAlpha" operator="in" result="effect1_backgroundBlur_180_24645"/>
<feBlend mode="normal" in="SourceGraphic" in2="effect1_backgroundBlur_180_24645" result="shape"/>
</filter>
</defs>
</svg>
