<svg width="21.000000" height="21.000000" viewBox="0 0 21 21" fill="none" xmlns="http://www.w3.org/2000/svg" xmlns:xlink="http://www.w3.org/1999/xlink">
	<desc>
			Created with Pixso.
	</desc>
	<defs/>
	<path id="Vector" d="M12.11 10.87L14.8 12.43C15.07 12.58 15.15 12.93 15 13.18C14.85 13.45 14.52 13.54 14.25 13.39L11.51 11.81C11.23 12.02 10.88 12.15 10.5 12.15C9.58 12.15 8.84 11.41 8.84 10.5C8.84 9.77 9.3 9.16 9.94 8.93L9.94 3.87C9.94 3.56 10.2 3.31 10.5 3.31C10.8 3.31 11.05 3.57 11.05 3.87L11.05 8.93C11.69 9.16 12.15 9.77 12.15 10.5C12.15 10.63 12.14 10.75 12.11 10.87ZM10.5 21C16.29 21 21 16.29 21 10.5C21 4.7 16.29 0 10.5 0C4.7 0 0 4.7 0 10.5C0 16.29 4.7 21 10.5 21Z" fill="#467DD0" fill-opacity="1.000000" fill-rule="evenodd"/>
</svg>
