<svg width="21.000000" height="15.428223" viewBox="0 0 21 15.4282" fill="none" xmlns="http://www.w3.org/2000/svg" xmlns:xlink="http://www.w3.org/1999/xlink">
	<desc>
			Created with Pixso.
	</desc>
	<defs/>
	<path id="Vector" d="M18.08 0L2.91 0C1.3 0 0 1.3 0 2.91L0 12.51C0 14.12 1.3 15.42 2.91 15.42L18.08 15.42C19.69 15.42 21 14.12 21 12.51L21 2.91C21 1.3 19.69 0 18.08 0ZM7.3 10.4L3.22 13.89C2.93 14.13 2.5 14.1 2.25 13.81C2.01 13.52 2.04 13.09 2.33 12.84L6.41 9.36C6.7 9.12 7.13 9.15 7.38 9.44C7.62 9.73 7.59 10.16 7.3 10.4ZM10.5 9.08C9.95 9.08 9.42 8.9 9.01 8.54L9.01 8.54L9 8.54C9.01 8.54 9.01 8.54 9.01 8.54L2.74 3.1C2.45 2.85 2.42 2.42 2.67 2.14C2.92 1.85 3.35 1.82 3.64 2.07L9.91 7.51C10.04 7.62 10.26 7.71 10.5 7.71C10.73 7.71 10.95 7.63 11.09 7.5L11.09 7.5L17.35 2.07C17.64 1.82 18.07 1.85 18.32 2.14C18.57 2.42 18.54 2.85 18.25 3.1L11.98 8.54C11.57 8.9 11.04 9.08 10.5 9.08ZM18.74 13.81C18.49 14.1 18.06 14.13 17.77 13.89L13.69 10.4C13.4 10.16 13.37 9.73 13.61 9.44C13.86 9.15 14.29 9.12 14.58 9.36L18.66 12.84C18.95 13.09 18.98 13.52 18.74 13.81Z" fill="#467DD0" fill-opacity="1.000000" fill-rule="nonzero"/>
</svg>
