<svg width="16.500000" height="22.000000" viewBox="0 0 16.5 22" fill="none" xmlns="http://www.w3.org/2000/svg" xmlns:xlink="http://www.w3.org/1999/xlink">
	<desc>
			Created with Pixso.
	</desc>
	<defs/>
	<path id="Vector" d="M8.25 0C3.69 0 0 3.69 0 8.25C0 10.04 0.58 11.69 1.56 13.03C1.58 13.07 1.58 13.1 1.6 13.13L7.1 21.38C7.36 21.77 7.79 22 8.25 22C8.7 22 9.13 21.77 9.39 21.38L14.89 13.13C14.91 13.1 14.91 13.07 14.93 13.03C15.91 11.69 16.5 10.04 16.5 8.25C16.5 3.69 12.8 0 8.25 0ZM8.25 11C6.73 11 5.5 9.76 5.5 8.25C5.5 6.73 6.73 5.5 8.25 5.5C9.76 5.5 11 6.73 11 8.25C11 9.76 9.76 11 8.25 11Z" fill="#467DD0" fill-opacity="1.000000" fill-rule="nonzero"/>
</svg>
