<svg width="25" height="25" viewBox="0 0 25 25" fill="none" xmlns="http://www.w3.org/2000/svg">
<path fill-rule="evenodd" clip-rule="evenodd" d="M0.875 11.2083C0.875 6.33715 0.875 3.90157 2.38828 2.38828C3.90157 0.875 6.33715 0.875 11.2083 0.875H13.7917C18.6628 0.875 21.0985 0.875 22.6117 2.38828C24.125 3.90157 24.125 6.33715 24.125 11.2083V13.7917C24.125 18.6628 24.125 21.0985 22.6117 22.6117C21.0985 24.125 18.6628 24.125 13.7917 24.125H11.2083C6.33715 24.125 3.90157 24.125 2.38828 22.6117C0.875 21.0985 0.875 18.6628 0.875 13.7917V11.2083ZM20.25 6.6875C20.25 7.75756 19.3825 8.625 18.3125 8.625C17.2425 8.625 16.375 7.75756 16.375 6.6875C16.375 5.61744 17.2425 4.75 18.3125 4.75C19.3825 4.75 20.25 5.61744 20.25 6.6875ZM15.0833 13.7917C15.0833 15.2184 13.9268 16.375 12.5 16.375C11.0732 16.375 9.91667 15.2184 9.91667 13.7917C9.91667 12.3649 11.0732 11.2083 12.5 11.2083C13.9268 11.2083 15.0833 12.3649 15.0833 13.7917ZM17.6667 13.7917C17.6667 16.6451 15.3534 18.9583 12.5 18.9583C9.64653 18.9583 7.33333 16.6451 7.33333 13.7917C7.33333 10.9382 9.64653 8.625 12.5 8.625C15.3534 8.625 17.6667 10.9382 17.6667 13.7917Z" fill="white"/>
</svg>
