<svg width="118.277344" height="754.000000" viewBox="0 0 118.277 754" fill="none" xmlns="http://www.w3.org/2000/svg" xmlns:xlink="http://www.w3.org/1999/xlink">
	<desc>
			Created with Pixso.
	</desc>
	<defs/>
	<path id="Vector" d="M79.51 36.95L90.23 36.95C94.41 36.95 97.32 36.12 98.97 34.47C100.62 32.71 101.45 30.4 101.45 27.54C101.45 24.68 100.62 22.43 98.97 20.78C97.32 19.02 94.41 18.14 90.23 18.14L64.82 18.14C60.65 18.14 57.73 19.02 56.08 20.78C54.32 22.43 53.44 24.68 53.44 27.54C53.44 30.4 54.32 32.71 56.08 34.47C57.73 36.12 60.65 36.95 64.82 36.95L68.29 36.95L68.29 54.1L1.31 50.8L1.31 2.96L17.81 2.96L17.81 34.47L45.36 35.96C39.75 32.55 36.95 27.27 36.95 20.12C36.95 13.41 39.2 8.41 43.71 5.11C48.22 1.7 54.76 0 63.34 0L89.07 0C98.42 0 105.63 2.3 110.68 6.92C115.63 11.43 118.11 18.14 118.11 27.05C118.11 35.96 115.63 42.72 110.68 47.34C105.63 51.85 98.42 54.1 89.07 54.1L79.51 54.1L79.51 36.95Z" fill="#3A4047" fill-opacity="1.000000" fill-rule="nonzero"/>
	<path id="Vector" d="M29.69 82.72C24.52 82.72 21.06 83.6 19.3 85.36C17.43 87.01 16.49 89.26 16.49 92.12C16.49 94.98 17.37 97.29 19.13 99.05C20.78 100.7 23.69 101.53 27.87 101.53L40.25 101.53L40.25 118.68L29.03 118.68C19.68 118.68 12.53 116.43 7.58 111.92C2.52 107.3 0 100.54 0 91.63C0 82.72 2.52 76.01 7.58 71.5C12.53 66.88 19.68 64.58 29.03 64.58C35.08 64.58 40.58 65.46 45.52 67.21C50.36 68.97 54.82 71.23 58.89 73.98C62.85 76.62 66.53 79.53 69.94 82.72C73.35 85.8 76.59 88.71 79.67 91.46C82.75 94.1 85.77 96.3 88.74 98.06C91.6 99.82 94.63 100.7 97.82 100.7C98.92 100.7 99.74 100.65 100.29 100.54L100.29 66.23L116.79 66.23L116.79 118.68L102.6 118.68C96.99 118.68 92.04 117.8 87.75 116.04C83.47 114.28 79.56 112.08 76.04 109.45C72.41 106.7 69.06 103.78 65.98 100.7C62.79 97.62 59.44 94.76 55.92 92.12C52.4 89.37 48.55 87.12 44.37 85.36C40.19 83.6 35.3 82.72 29.69 82.72Z" fill="#3A4047" fill-opacity="1.000000" fill-rule="nonzero"/>
	<path id="Vector" d="M15.83 172.87C15.83 169.35 15.45 166.49 14.68 164.29C13.91 161.98 12.86 160.11 11.54 158.68C10.22 157.25 8.68 156.1 6.92 155.22C5.16 154.34 3.29 153.57 1.31 152.91L1.31 140.7L116.79 140.7L116.79 158.85L28.7 158.85L28.7 172.87L15.83 172.87Z" fill="#3A4047" fill-opacity="1.000000" fill-rule="nonzero"/>
	<path id="Vector" d="M90.23 232.83C94.41 232.83 97.38 232.01 99.14 230.36C100.79 228.6 101.61 226.29 101.61 223.43C101.61 220.57 100.79 218.31 99.14 216.66C97.38 214.9 94.41 214.02 90.23 214.02L27.87 214.02C23.69 214.02 20.78 214.9 19.13 216.66C17.37 218.31 16.49 220.57 16.49 223.43C16.49 226.29 17.37 228.6 19.13 230.36C20.78 232.01 23.69 232.83 27.87 232.83L90.23 232.83ZM29.03 250.98C19.68 250.98 12.53 248.61 7.58 243.88C2.52 239.15 0 232.34 0 223.43C0 214.52 2.52 207.7 7.58 202.97C12.53 198.24 19.68 195.88 29.03 195.88L89.07 195.88C98.42 195.88 105.63 198.24 110.68 202.97C115.63 207.7 118.11 214.52 118.11 223.43C118.11 232.34 115.63 239.15 110.68 243.88C105.63 248.61 98.42 250.98 89.07 250.98L29.03 250.98Z" fill="#3A4047" fill-opacity="1.000000" fill-rule="nonzero"/>
	<path id="Vector" d="M1.31 313.57L1.31 257.48L17.81 257.48L17.81 276.45L116.79 276.45L116.79 294.6L17.81 294.6L17.81 313.57L1.31 313.57Z" fill="#3A4047" fill-opacity="1.000000" fill-rule="nonzero"/>
	<path id="Vector" d="M1.31 356.7L90.39 356.7C94.57 356.7 97.49 355.87 99.14 354.22C100.79 352.46 101.61 350.16 101.61 347.3C101.61 344.44 100.79 342.18 99.14 340.53C97.49 338.77 94.57 337.89 90.39 337.89L1.31 337.89L1.31 320.74L89.24 320.74C98.59 320.74 105.79 323.05 110.85 327.67C115.8 332.17 118.27 338.88 118.27 347.79C118.27 356.7 115.8 363.46 110.85 368.08C105.79 372.59 98.59 374.84 89.24 374.84L1.31 374.84L1.31 356.7Z" fill="#3A4047" fill-opacity="1.000000" fill-rule="nonzero"/>
	<path id="Vector" d="M116.79 382.47L116.79 400.78L95.84 403.91L95.84 426.18L116.79 429.32L116.79 445.98L1.31 427.5L1.31 400.94L116.79 382.47ZM80.17 423.87L80.17 406.39L21.77 415.13L80.17 423.87Z" fill="#3A4047" fill-opacity="1.000000" fill-rule="nonzero"/>
	<path id="Vector" d="M33.15 495.43L116.79 495.43L116.79 511.76L1.31 511.76L1.31 488.99L70.43 470.35L1.31 470.35L1.31 454.19L116.79 454.19L116.79 472.83L33.15 495.43Z" fill="#3A4047" fill-opacity="1.000000" fill-rule="nonzero"/>
	<path id="Vector" d="M116.79 520.04L116.79 538.35L95.84 541.49L95.84 563.76L116.79 566.89L116.79 583.55L1.31 565.08L1.31 538.52L116.79 520.04ZM80.17 561.45L80.17 543.96L21.77 552.71L80.17 561.45Z" fill="#3A4047" fill-opacity="1.000000" fill-rule="nonzero"/>
	<path id="Vector" d="M1.31 612.94C1.31 603.81 3.73 597.05 8.57 592.65C13.41 588.14 20.5 585.89 29.85 585.89L44.86 585.89C54.21 585.89 61.31 588.14 66.14 592.65C70.98 597.05 73.4 603.81 73.4 612.94L73.4 621.52L116.79 621.52L116.79 639.66L1.31 639.66L1.31 612.94ZM17.81 621.52L56.91 621.52L56.91 612.94C56.91 610.08 56.14 607.88 54.6 606.34C53.06 604.8 50.2 604.03 46.02 604.03L28.7 604.03C24.52 604.03 21.66 604.8 20.12 606.34C18.58 607.88 17.81 610.08 17.81 612.94L17.81 621.52Z" fill="#3A4047" fill-opacity="1.000000" fill-rule="nonzero"/>
	<path id="Vector" d="M116.79 648.11L116.79 666.42L95.84 669.56L95.84 691.83L116.79 694.96L116.79 711.62L1.31 693.15L1.31 666.59L116.79 648.11ZM80.17 689.52L80.17 672.03L21.77 680.78L80.17 689.52Z" fill="#3A4047" fill-opacity="1.000000" fill-rule="nonzero"/>
	<path id="Vector" d="M100.29 754C100.4 753.01 100.46 751.96 100.46 750.86C100.46 749.76 100.46 748.72 100.46 747.73C100.46 744.87 99.74 742.45 98.31 740.47C96.88 738.38 93.91 737.33 89.4 737.33L1.31 737.33L1.31 719.19L88.08 719.19C93.91 719.19 98.7 719.9 102.44 721.33C106.18 722.76 109.14 724.69 111.34 727.11C113.43 729.53 114.92 732.33 115.8 735.52C116.68 738.6 117.12 741.84 117.12 745.25C117.12 746.9 117.12 748.39 117.12 749.71C117.12 751.03 117.01 752.46 116.79 754L100.29 754Z" fill="#3A4047" fill-opacity="1.000000" fill-rule="nonzero"/>
</svg>
