<svg width="1440" height="201" viewBox="0 0 1440 201" fill="none" xmlns="http://www.w3.org/2000/svg">
<path d="M1374.19 152.379V172.928C1374.19 180.937 1375.77 186.522 1378.93 189.684C1382.3 192.845 1386.73 194.426 1392.21 194.426C1397.68 194.426 1402.01 192.845 1405.17 189.684C1408.54 186.522 1410.22 180.937 1410.22 172.928V124.243C1410.22 116.234 1408.54 110.649 1405.17 107.487C1402.01 104.115 1397.68 102.429 1392.21 102.429C1386.73 102.429 1382.3 104.115 1378.93 107.487C1375.77 110.649 1374.19 116.234 1374.19 124.243V130.882H1341.31L1347.63 2.5293H1439.31V34.1432H1378.93L1376.08 86.9384C1382.62 76.1897 1392.73 70.8153 1406.43 70.8153C1419.29 70.8153 1428.88 75.1359 1435.2 83.777C1441.73 92.4182 1445 104.958 1445 121.398V170.715C1445 188.63 1440.57 202.435 1431.72 212.13C1423.08 221.614 1410.22 226.356 1393.15 226.356C1376.08 226.356 1363.12 221.614 1354.27 212.13C1345.63 202.435 1341.31 188.63 1341.31 170.715V152.379H1374.19Z" fill="#3A4047"/>
<path d="M1286.46 56.905C1286.46 46.9993 1284.77 40.3604 1281.4 36.9883C1278.24 33.4053 1273.92 31.6139 1268.44 31.6139C1262.96 31.6139 1258.53 33.3 1255.16 36.6721C1252 39.8335 1250.42 45.4186 1250.42 53.4275V77.1379H1217.54V55.6405C1217.54 37.7259 1221.86 24.0266 1230.5 14.5424C1239.36 4.84746 1252.32 0 1269.39 0C1286.46 0 1299.32 4.84746 1307.96 14.5424C1316.81 24.0266 1321.24 37.7259 1321.24 55.6405C1321.24 67.2322 1319.55 77.7702 1316.18 87.2544C1312.81 96.5278 1308.48 105.064 1303.22 112.862C1298.16 120.449 1292.57 127.509 1286.46 134.043C1280.56 140.576 1274.97 146.794 1269.7 152.695C1264.65 158.596 1260.43 164.392 1257.06 170.083C1253.69 175.563 1252 181.358 1252 187.47C1252 189.578 1252.11 191.159 1252.32 192.213H1318.07V223.826H1217.54V196.638C1217.54 185.89 1219.23 176.406 1222.6 168.186C1225.97 159.966 1230.19 152.484 1235.25 145.74C1240.51 138.785 1246.1 132.357 1252 126.456C1257.9 120.344 1263.38 113.915 1268.44 107.171C1273.71 100.427 1278.03 93.0503 1281.4 85.0414C1284.77 77.0325 1286.46 67.6537 1286.46 56.905Z" fill="#3A4047"/>
<path d="M1113.7 30.3495C1120.44 30.3495 1125.92 29.6119 1130.14 28.1366C1134.56 26.6612 1138.14 24.659 1140.88 22.1299C1143.62 19.6008 1145.84 16.6502 1147.52 13.278C1149.21 9.90588 1150.68 6.32297 1151.95 2.5293H1175.34V223.827H1140.57V55.0084H1113.7V30.3495Z" fill="#3A4047"/>
<path d="M998.785 172.928C998.785 180.937 1000.37 186.627 1003.53 190C1006.9 193.161 1011.33 194.742 1016.8 194.742C1022.28 194.742 1026.61 193.161 1029.77 190C1033.14 186.627 1034.82 180.937 1034.82 172.928V53.4275C1034.82 45.4186 1033.14 39.8335 1029.77 36.6721C1026.61 33.3 1022.28 31.6139 1016.8 31.6139C1011.33 31.6139 1006.9 33.3 1003.53 36.6721C1000.37 39.8335 998.785 45.4186 998.785 53.4275V172.928ZM964.01 55.6405C964.01 37.7259 968.541 24.0266 977.604 14.5424C986.666 4.84746 999.733 0 1016.8 0C1033.88 0 1046.94 4.84746 1056.01 14.5424C1065.07 24.0266 1069.6 37.7259 1069.6 55.6405V170.715C1069.6 188.63 1065.07 202.434 1056.01 212.129C1046.94 221.614 1033.88 226.356 1016.8 226.356C999.733 226.356 986.666 221.614 977.604 212.129C968.541 202.434 964.01 188.63 964.01 170.715V55.6405Z" fill="#3A4047"/>
<path d="M844.051 2.5293H951.538V34.1432H915.182V223.827H880.407V34.1432H844.051V2.5293Z" fill="#3A4047"/>
<path d="M761.4 2.5293V173.244C761.4 181.253 762.981 186.838 766.142 190C769.515 193.161 773.94 194.742 779.42 194.742C784.9 194.742 789.221 193.161 792.382 190C795.754 186.838 797.44 181.253 797.44 173.244V2.5293H830.319V171.031C830.319 188.946 825.893 202.751 817.041 212.446C808.4 221.93 795.543 226.672 778.472 226.672C761.4 226.672 748.439 221.93 739.587 212.446C730.946 202.751 726.625 188.946 726.625 171.031V2.5293H761.4Z" fill="#3A4047"/>
<path d="M712.011 223.827H676.92L670.913 183.677H628.235L622.228 223.827H590.298L625.705 2.5293H676.604L712.011 223.827ZM632.66 153.644H666.171L649.416 41.7305L632.66 153.644Z" fill="#3A4047"/>
<path d="M495.533 63.5441V223.827H464.235V2.5293H507.862L543.586 134.992V2.5293H574.567V223.827H538.844L495.533 63.5441Z" fill="#3A4047"/>
<path d="M448.358 223.827H413.267L407.26 183.677H364.581L358.575 223.827H326.645L362.052 2.5293H412.95L448.358 223.827ZM369.007 153.644H402.518L385.763 41.7305L369.007 153.644Z" fill="#3A4047"/>
<path d="M270.325 2.5293C287.818 2.5293 300.78 7.166 309.21 16.4394C317.852 25.7128 322.172 39.3068 322.172 57.2214V85.99C322.172 103.905 317.852 117.499 309.21 126.772C300.78 136.045 287.818 140.682 270.325 140.682H253.886V223.827H219.111V2.5293H270.325ZM253.886 34.1432V109.068H270.325C275.805 109.068 280.02 107.593 282.971 104.642C285.922 101.692 287.397 96.2118 287.397 88.203V55.0084C287.397 46.9995 285.922 41.5198 282.971 38.5692C280.02 35.6185 275.805 34.1432 270.325 34.1432H253.886Z" fill="#3A4047"/>
<path d="M202.918 223.827H167.826L161.82 183.677H119.141L113.134 223.827H81.2041L116.612 2.5293H167.51L202.918 223.827ZM123.567 153.644H157.077L140.322 41.7305L123.567 153.644Z" fill="#3A4047"/>
<path d="M0 192.213C1.89683 192.423 3.89905 192.529 6.00664 192.529C8.11423 192.529 10.1164 192.529 12.0133 192.529C17.493 192.529 22.1297 191.159 25.9234 188.419C29.9278 185.679 31.93 179.989 31.93 171.348V2.5293H66.7053V168.818C66.7053 179.989 65.3354 189.157 62.5955 196.323C59.8557 203.488 56.1674 209.179 51.5307 213.394C46.894 217.398 41.5196 220.244 35.4076 221.93C29.5063 223.616 23.2889 224.459 16.7554 224.459C13.594 224.459 10.7487 224.459 8.21961 224.459C5.6905 224.459 2.95063 224.248 0 223.827V192.213Z" fill="#3A4047"/>
</svg>
