<svg width="352" height="79" viewBox="0 0 352 79" fill="none" xmlns="http://www.w3.org/2000/svg">
<path d="M339.411 26.8129V30.4137C339.411 31.8172 339.688 32.7959 340.242 33.3498C340.833 33.9038 341.609 34.1808 342.569 34.1808C343.529 34.1808 344.286 33.9038 344.84 33.3498C345.431 32.7959 345.727 31.8172 345.727 30.4137V21.8825C345.727 20.479 345.431 19.5003 344.84 18.9464C344.286 18.3554 343.529 18.06 342.569 18.06C341.609 18.06 340.833 18.3554 340.242 18.9464C339.688 19.5003 339.411 20.479 339.411 21.8825V23.0458H333.65L334.758 0.554199H350.823V6.09401H340.242L339.744 15.3455C340.889 13.4619 342.661 12.5202 345.062 12.5202C347.315 12.5202 348.995 13.2773 350.103 14.7915C351.248 16.3057 351.82 18.5032 351.82 21.3839V30.026C351.82 33.1652 351.045 35.5842 349.494 37.2831C347.98 38.9451 345.727 39.776 342.735 39.776C339.744 39.776 337.472 38.9451 335.921 37.2831C334.407 35.5842 333.65 33.1652 333.65 30.026V26.8129H339.411Z" fill="#467DD0"/>
<path d="M324.039 10.0827C324.039 8.34693 323.743 7.18357 323.152 6.59266C322.598 5.96481 321.841 5.65089 320.881 5.65089C319.921 5.65089 319.145 5.94634 318.554 6.53726C318 7.09124 317.723 8.06994 317.723 9.47335V13.6282H311.962V9.86114C311.962 6.72192 312.719 4.32133 314.233 2.65939C315.784 0.960519 318.056 0.111084 321.047 0.111084C324.039 0.111084 326.292 0.960519 327.806 2.65939C329.357 4.32133 330.132 6.72192 330.132 9.86114C330.132 11.8924 329.837 13.739 329.246 15.4009C328.655 17.026 327.898 18.5217 326.975 19.8882C326.088 21.2177 325.11 22.455 324.039 23.5999C323.005 24.7447 322.026 25.8342 321.103 26.8683C320.216 27.9024 319.478 28.9181 318.887 29.9152C318.296 30.8755 318 31.8911 318 32.9621C318 33.3314 318.019 33.6084 318.056 33.7931H329.578V39.3329H311.962V34.5687C311.962 32.6851 312.257 31.0232 312.848 29.5828C313.439 28.1425 314.178 26.8314 315.064 25.6496C315.988 24.4308 316.966 23.3044 318 22.2703C319.034 21.1993 319.995 20.0728 320.881 18.891C321.804 17.7092 322.561 16.4166 323.152 15.0132C323.743 13.6097 324.039 11.9663 324.039 10.0827Z" fill="#467DD0"/>
<path d="M293.765 5.42923C294.947 5.42923 295.907 5.29997 296.646 5.04144C297.421 4.78292 298.049 4.43206 298.529 3.98888C299.009 3.5457 299.397 3.02865 299.693 2.43774C299.988 1.84682 300.247 1.21898 300.468 0.554199H304.568V39.3328H298.474V9.75028H293.765V5.42923Z" fill="#467DD0"/>
<path d="M273.628 30.4138C273.628 31.8172 273.905 32.8144 274.459 33.4053C275.05 33.9593 275.826 34.2363 276.786 34.2363C277.746 34.2363 278.503 33.9593 279.057 33.4053C279.648 32.8144 279.944 31.8172 279.944 30.4138V9.47335C279.944 8.06994 279.648 7.09124 279.057 6.53726C278.503 5.94634 277.746 5.65089 276.786 5.65089C275.826 5.65089 275.05 5.94634 274.459 6.53726C273.905 7.09124 273.628 8.06994 273.628 9.47335V30.4138ZM267.535 9.86114C267.535 6.72192 268.329 4.32133 269.917 2.65939C271.505 0.960519 273.795 0.111084 276.786 0.111084C279.778 0.111084 282.067 0.960519 283.656 2.65939C285.244 4.32133 286.038 6.72192 286.038 9.86114V30.026C286.038 33.1653 285.244 35.5843 283.656 37.2832C282.067 38.9451 279.778 39.7761 276.786 39.7761C273.795 39.7761 271.505 38.9451 269.917 37.2832C268.329 35.5843 267.535 33.1653 267.535 30.026V9.86114Z" fill="#31373F"/>
<path d="M246.514 0.554199H265.349V6.09401H258.979V39.3328H252.885V6.09401H246.514V0.554199Z" fill="#31373F"/>
<path d="M232.031 0.554199V30.4691C232.031 31.8726 232.308 32.8513 232.862 33.4052C233.453 33.9592 234.228 34.2362 235.188 34.2362C236.149 34.2362 236.906 33.9592 237.46 33.4052C238.051 32.8513 238.346 31.8726 238.346 30.4691V0.554199H244.108V30.0814C244.108 33.2206 243.332 35.6396 241.781 37.3385C240.267 39.0005 238.014 39.8314 235.022 39.8314C232.031 39.8314 229.759 39.0005 228.208 37.3385C226.694 35.6396 225.937 33.2206 225.937 30.0814V0.554199H232.031Z" fill="#31373F"/>
<path d="M223.377 39.3328H217.227L216.175 32.2973H208.696L207.644 39.3328H202.048L208.253 0.554199H217.172L223.377 39.3328ZM209.472 27.0345H215.344L212.408 7.42356L209.472 27.0345Z" fill="#31373F"/>
<path d="M185.442 11.246V39.3328H179.958V0.554199H187.602L193.862 23.766V0.554199H199.291V39.3328H193.031L185.442 11.246Z" fill="#31373F"/>
<path d="M177.175 39.3328H171.026L169.974 32.2973H162.495L161.442 39.3328H155.847L162.052 0.554199H170.971L177.175 39.3328ZM163.271 27.0345H169.143L166.207 7.42356L163.271 27.0345Z" fill="#31373F"/>
<path d="M145.978 0.554199C149.044 0.554199 151.315 1.3667 152.792 2.99171C154.307 4.61672 155.064 6.99884 155.064 10.1381V15.1793C155.064 18.3185 154.307 20.7006 152.792 22.3256C151.315 23.9506 149.044 24.7631 145.978 24.7631H143.098V39.3328H137.004V0.554199H145.978ZM143.098 6.09401V19.2233H145.978C146.939 19.2233 147.677 18.9648 148.194 18.4478C148.711 17.9307 148.97 16.9705 148.97 15.5671V9.75028C148.97 8.34686 148.711 7.38663 148.194 6.86958C147.677 6.35253 146.939 6.09401 145.978 6.09401H143.098Z" fill="#31373F"/>
<path d="M134.166 39.3328H128.017L126.964 32.2973H119.486L118.433 39.3328H112.838L119.042 0.554199H127.962L134.166 39.3328ZM120.261 27.0345H126.133L123.197 7.42356L120.261 27.0345Z" fill="#31373F"/>
<path d="M98.6084 33.793C98.9408 33.83 99.2916 33.8484 99.661 33.8484C100.03 33.8484 100.381 33.8484 100.714 33.8484C101.674 33.8484 102.486 33.6084 103.151 33.1283C103.853 32.6481 104.204 31.651 104.204 30.1368V0.554199H110.297V29.6936C110.297 31.651 110.057 33.2575 109.577 34.5132C109.097 35.7689 108.451 36.7661 107.638 37.5047C106.826 38.2064 105.884 38.705 104.813 39.0005C103.779 39.2959 102.689 39.4436 101.544 39.4436C100.991 39.4436 100.492 39.4436 100.049 39.4436C99.6056 39.4436 99.1254 39.4067 98.6084 39.3328V33.793Z" fill="#31373F"/>
<mask id="path-13-inside-1_180_24580" fill="white">
<path d="M24.6885 18.7517V0.563843H52.3228V39.9004H34.4169V18.7517H24.6885Z"/>
</mask>
<path d="M24.6885 0.563843V-99.4362H-75.3115V0.563843H24.6885ZM24.6885 18.7517H-75.3115V118.752H24.6885V18.7517ZM34.4169 18.7517H134.417V-81.2483H34.4169V18.7517ZM34.4169 39.9004H-65.5831V139.9H34.4169V39.9004ZM52.3228 39.9004V139.9H152.323V39.9004H52.3228ZM52.3228 0.563843H152.323V-99.4362H52.3228V0.563843ZM-75.3115 0.563843V18.7517H124.688V0.563843H-75.3115ZM24.6885 118.752H34.4169V-81.2483H24.6885V118.752ZM-65.5831 18.7517V39.9004H134.417V18.7517H-65.5831ZM34.4169 139.9H52.3228V-60.0996H34.4169V139.9ZM152.323 39.9004V0.563843H-47.6772V39.9004H152.323ZM52.3228 -99.4362H24.6885V100.564H52.3228V-99.4362Z" fill="#467DD0" mask="url(#path-13-inside-1_180_24580)"/>
<mask id="path-15-inside-2_180_24580" fill="white">
<path d="M17.4975 41.1694H0.719524C-2.38227 57.6654 4.38528 76.948 24.1241 78.1091C41.325 79.1209 50.1135 66.1249 52.1813 59.4983H31.5966C14.5367 62.4591 16.3696 50.6158 17.4975 41.1694Z"/>
</mask>
<path d="M0.719524 41.1694V-58.8306H-82.2296L-97.5582 22.69L0.719524 41.1694ZM17.4975 41.1694L116.792 53.0255L130.148 -58.8306H17.4975V41.1694ZM31.5966 59.4983V-40.5017H22.9833L14.4969 -39.0289L31.5966 59.4983ZM52.1813 59.4983L147.641 89.2872L188.143 -40.5017H52.1813V59.4983ZM24.1241 78.1091L18.2519 177.937H18.2519L24.1241 78.1091ZM0.719524 141.169H17.4975V-58.8306H0.719524V141.169ZM-81.7972 29.3134C-81.8414 29.684 -82.9221 37.6525 -83.1388 45.7655C-83.3415 53.3574 -83.3579 71.869 -74.9106 92.6475C-64.6936 117.779 -44.0781 141.038 -13.5539 152.664C12.2198 162.48 35.5865 160.301 48.6964 158.025L14.4969 -39.0289C19.0767 -39.8237 36.2751 -42.3729 57.6296 -34.2398C83.7346 -24.2976 101.68 -4.03427 110.364 17.3257C117.278 34.3326 116.865 48.2973 116.79 51.1043C116.701 54.4324 116.272 57.3781 116.792 53.0255L-81.7972 29.3134ZM31.5966 159.498H52.1813V-40.5017H31.5966V159.498ZM-43.2787 29.7093C-39.0171 16.053 -31.6512 4.66343 -21.281 -4.23225C-8.52397 -15.1755 9.85036 -22.9034 29.9962 -21.7183L18.2519 177.937C97.7129 182.611 137.486 121.831 147.641 89.2872L-43.2787 29.7093ZM29.9963 -21.7183C41.4946 -21.0419 54.6381 -17.349 66.9607 -9.17941C79.0078 -1.19244 87.04 8.91681 91.97 18.1032C101.02 34.9678 100.8 50.0624 98.9972 59.6489L-97.5582 22.69C-102.463 48.7724 -100.85 81.7564 -84.2568 112.677C-65.3006 147.999 -28.8403 175.166 18.2519 177.937L29.9963 -21.7183Z" fill="#467DD0" mask="url(#path-15-inside-2_180_24580)"/>
<mask id="path-17-inside-3_180_24580" fill="white">
<path d="M32.4424 57.9474V43.5663H64.4474L56.6929 27.4933V0H60.2177L93.0686 66.2659H73.7528L69.946 57.9474H32.4424Z"/>
</mask>
<path d="M32.4424 43.5663V-56.4337H-67.5576V43.5663H32.4424ZM32.4424 57.9474H-67.5576V157.947H32.4424V57.9474ZM69.946 57.9474L160.877 16.335L134.157 -42.0526H69.946V57.9474ZM73.7528 66.2659L-17.178 107.878L9.54177 166.266H73.7528V66.2659ZM93.0686 66.2659V166.266H254.257L182.663 21.8498L93.0686 66.2659ZM60.2177 0L149.812 -44.4161L122.257 -100H60.2177V0ZM56.6929 0V-100H-43.3071V0H56.6929ZM56.6929 27.4933H-43.3071V50.3553L-33.3729 70.9461L56.6929 27.4933ZM64.4474 43.5663V143.566H223.723L154.513 0.113464L64.4474 43.5663ZM-67.5576 43.5663V57.9474H132.442V43.5663H-67.5576ZM32.4424 157.947H69.946V-42.0526H32.4424V157.947ZM-20.9847 99.5598L-17.178 107.878L164.684 24.6535L160.877 16.335L-20.9847 99.5598ZM73.7528 166.266H93.0686V-33.7341H73.7528V166.266ZM182.663 21.8498L149.812 -44.4161L-29.377 44.4161L3.47391 110.682L182.663 21.8498ZM60.2177 -100H56.6929V100H60.2177V-100ZM-43.3071 0V27.4933H156.693V0H-43.3071ZM-33.3729 70.9461L-25.6184 87.0191L154.513 0.113464L146.759 -15.9595L-33.3729 70.9461ZM64.4474 -56.4337H32.4424V143.566H64.4474V-56.4337Z" fill="#31373F" mask="url(#path-17-inside-3_180_24580)"/>
<path d="M340.709 56.4119H342.969L341.39 64.921L348.304 56.4119H350.614L348.337 68.6936H346.077L347.656 60.1845L340.742 68.6936H338.432L340.709 56.4119Z" fill="#31373F"/>
<path d="M328.439 56.4119H330.699L329.12 64.921L336.034 56.4119H338.344L336.067 68.6936H333.807L335.386 60.1845L328.472 68.6936H326.162L328.439 56.4119Z" fill="#31373F"/>
<path d="M317.143 56.4119H319.42L318.506 61.3645H322.893L323.807 56.4119H326.084L323.807 68.6936H321.531L322.478 63.5416H318.09L317.143 68.6936H314.866L317.143 56.4119Z" fill="#31373F"/>
<path d="M301.325 63.7413C301.325 62.6222 301.519 61.6029 301.906 60.6833C302.305 59.7526 302.854 58.9549 303.552 58.2901C304.25 57.6253 305.07 57.1101 306.011 56.7445C306.964 56.3789 307.995 56.196 309.103 56.196C309.878 56.196 310.587 56.329 311.23 56.5949C311.872 56.8497 312.421 57.2098 312.875 57.6752C313.341 58.1405 313.701 58.689 313.955 59.3205C314.21 59.952 314.338 60.6334 314.338 61.3647C314.338 62.4394 314.144 63.4366 313.756 64.3562C313.368 65.2758 312.831 66.0735 312.144 66.7494C311.468 67.4252 310.665 67.9571 309.734 68.3448C308.803 68.7215 307.801 68.9099 306.726 68.9099C305.928 68.9099 305.197 68.7825 304.532 68.5277C303.867 68.2617 303.297 67.9017 302.82 67.4474C302.355 66.982 301.989 66.4336 301.724 65.8021C301.458 65.1705 301.325 64.4836 301.325 63.7413ZM303.651 63.3424C303.651 63.8299 303.735 64.2786 303.901 64.6886C304.067 65.0985 304.3 65.4531 304.599 65.7522C304.909 66.0514 305.275 66.2896 305.696 66.4668C306.128 66.633 306.599 66.7161 307.108 66.7161C307.817 66.7161 308.471 66.5887 309.069 66.3339C309.668 66.0791 310.183 65.7301 310.615 65.2869C311.058 64.8326 311.402 64.3008 311.645 63.6914C311.889 63.082 312.011 62.4283 312.011 61.7303C312.011 61.2428 311.928 60.7941 311.762 60.3841C311.596 59.9742 311.363 59.6252 311.064 59.3371C310.765 59.038 310.399 58.8053 309.967 58.6391C309.546 58.4729 309.075 58.3898 308.554 58.3898C307.856 58.3898 307.208 58.5172 306.61 58.7721C306.011 59.0269 305.491 59.3759 305.047 59.8191C304.615 60.2623 304.272 60.7885 304.017 61.3979C303.773 61.9962 303.651 62.6444 303.651 63.3424Z" fill="#31373F"/>
<path d="M292.084 56.4119H300.793L298.516 68.6936H296.239L298.117 58.589H293.962L292.084 68.6936H289.807L292.084 56.4119Z" fill="#31373F"/>
<path d="M287.041 58.589H286.243C285.855 58.589 285.545 58.6001 285.313 58.6222C285.08 58.6444 284.869 58.6776 284.681 58.722C284.47 58.7774 284.271 58.8715 284.083 59.0045C283.905 59.1374 283.756 59.2926 283.634 59.4698C283.512 59.6471 283.412 59.841 283.335 60.0515C283.268 60.262 283.235 60.4781 283.235 60.6997C283.235 61.0431 283.313 61.3091 283.468 61.4974C283.634 61.6747 283.839 61.8076 284.083 61.8963C284.326 61.9849 284.592 62.0403 284.88 62.0625C285.168 62.0735 285.44 62.0791 285.695 62.0791H286.393L287.041 58.589ZM282.703 64.0069C282.393 63.9183 282.122 63.7798 281.889 63.5915C281.667 63.4031 281.479 63.187 281.324 62.9433C281.18 62.6885 281.069 62.4115 280.991 62.1123C280.925 61.8132 280.892 61.5085 280.892 61.1983C280.892 60.3673 281.091 59.5751 281.49 58.8217C281.9 58.0683 282.471 57.481 283.202 57.06C283.412 56.9381 283.628 56.8384 283.85 56.7609C284.072 56.6722 284.315 56.6058 284.581 56.5614C284.858 56.506 285.163 56.4673 285.495 56.4451C285.839 56.4229 286.227 56.4119 286.659 56.4119H289.717L287.44 68.6936H285.163L285.977 64.2562H285.047L281.557 68.6936H278.931L282.703 64.0069Z" fill="#31373F"/>
<path d="M267.609 56.4119H270.136C271.598 56.4119 272.656 56.6168 273.31 57.0268C273.975 57.4367 274.307 58.1015 274.307 59.0211C274.307 60.4171 273.692 61.4088 272.462 61.996C273.049 62.2508 273.459 62.55 273.692 62.8934C273.936 63.2369 274.058 63.6967 274.058 64.2728C274.058 64.9487 273.93 65.5581 273.675 66.101C273.421 66.6439 273.055 67.1092 272.579 67.497C272.102 67.8737 271.526 68.1673 270.85 68.3778C270.185 68.5884 269.438 68.6936 268.607 68.6936H265.333L267.609 56.4119ZM269.138 66.5165C270.878 66.5165 271.748 65.8849 271.748 64.6219C271.748 63.7909 271.055 63.3754 269.67 63.3754H268.59L268.008 66.5165H269.138ZM269.737 61.1484C271.221 61.1484 271.964 60.6332 271.964 59.6028C271.964 58.9602 271.443 58.6389 270.401 58.6389H269.471L269.005 61.1484H269.737Z" fill="#31373F"/>
<path d="M251.791 63.7413C251.791 62.6222 251.985 61.6029 252.373 60.6833C252.772 59.7526 253.32 58.9549 254.018 58.2901C254.716 57.6253 255.536 57.1101 256.478 56.7445C257.431 56.3789 258.461 56.196 259.569 56.196C260.344 56.196 261.054 56.329 261.696 56.5949C262.339 56.8497 262.887 57.2098 263.342 57.6752C263.807 58.1405 264.167 58.689 264.422 59.3205C264.677 59.952 264.804 60.6334 264.804 61.3647C264.804 62.4394 264.61 63.4366 264.222 64.3562C263.835 65.2758 263.297 66.0735 262.61 66.7494C261.934 67.4252 261.131 67.9571 260.2 68.3448C259.27 68.7215 258.267 68.9099 257.192 68.9099C256.395 68.9099 255.663 68.7825 254.999 68.5277C254.334 68.2617 253.763 67.9017 253.287 67.4474C252.821 66.982 252.456 66.4336 252.19 65.8021C251.924 65.1705 251.791 64.4836 251.791 63.7413ZM254.118 63.3424C254.118 63.8299 254.201 64.2786 254.367 64.6886C254.533 65.0985 254.766 65.4531 255.065 65.7522C255.375 66.0514 255.741 66.2896 256.162 66.4668C256.594 66.633 257.065 66.7161 257.575 66.7161C258.284 66.7161 258.937 66.5887 259.536 66.3339C260.134 66.0791 260.649 65.7301 261.081 65.2869C261.524 64.8326 261.868 64.3008 262.112 63.6914C262.355 63.082 262.477 62.4283 262.477 61.7303C262.477 61.2428 262.394 60.7941 262.228 60.3841C262.062 59.9742 261.829 59.6252 261.53 59.3371C261.231 59.038 260.865 58.8053 260.433 58.6391C260.012 58.4729 259.541 58.3898 259.02 58.3898C258.322 58.3898 257.674 58.5172 257.076 58.7721C256.478 59.0269 255.957 59.3759 255.514 59.8191C255.082 60.2623 254.738 60.7885 254.483 61.3979C254.24 61.9962 254.118 62.6444 254.118 63.3424Z" fill="#31373F"/>
<path d="M242.323 56.4119H244.6L243.686 61.3645H248.074L248.988 56.4119H251.264L248.988 68.6936H246.711L247.658 63.5416H243.271L242.323 68.6936H240.046L242.323 56.4119Z" fill="#31373F"/>
<path d="M226.505 63.7413C226.505 62.6222 226.699 61.6029 227.087 60.6833C227.485 59.7526 228.034 58.9549 228.732 58.2901C229.43 57.6253 230.25 57.1101 231.192 56.7445C232.144 56.3789 233.175 56.196 234.283 56.196C235.058 56.196 235.767 56.329 236.41 56.5949C237.053 56.8497 237.601 57.2098 238.055 57.6752C238.521 58.1405 238.881 58.689 239.136 59.3205C239.39 59.952 239.518 60.6334 239.518 61.3647C239.518 62.4394 239.324 63.4366 238.936 64.3562C238.548 65.2758 238.011 66.0735 237.324 66.7494C236.648 67.4252 235.845 67.9571 234.914 68.3448C233.984 68.7215 232.981 68.9099 231.906 68.9099C231.108 68.9099 230.377 68.7825 229.712 68.5277C229.048 68.2617 228.477 67.9017 228.001 67.4474C227.535 66.982 227.17 66.4336 226.904 65.8021C226.638 65.1705 226.505 64.4836 226.505 63.7413ZM228.832 63.3424C228.832 63.8299 228.915 64.2786 229.081 64.6886C229.247 65.0985 229.48 65.4531 229.779 65.7522C230.089 66.0514 230.455 66.2896 230.876 66.4668C231.308 66.633 231.779 66.7161 232.288 66.7161C232.998 66.7161 233.651 66.5887 234.25 66.3339C234.848 66.0791 235.363 65.7301 235.795 65.2869C236.238 64.8326 236.582 64.3008 236.826 63.6914C237.069 63.082 237.191 62.4283 237.191 61.7303C237.191 61.2428 237.108 60.7941 236.942 60.3841C236.776 59.9742 236.543 59.6252 236.244 59.3371C235.945 59.038 235.579 58.8053 235.147 58.6391C234.726 58.4729 234.255 58.3898 233.734 58.3898C233.036 58.3898 232.388 58.5172 231.79 58.7721C231.192 59.0269 230.671 59.3759 230.228 59.8191C229.796 60.2623 229.452 60.7885 229.197 61.3979C228.953 61.9962 228.832 62.6444 228.832 63.3424Z" fill="#31373F"/>
<path d="M216.063 56.4119H218.324L216.745 64.921L223.659 56.4119H225.969L223.692 68.6936H221.432L223.01 60.1845L216.097 68.6936H213.787L216.063 56.4119Z" fill="#31373F"/>
<path d="M204.15 56.4119H206.427L204.549 66.5165H208.538L210.416 56.4119H212.693L210.815 66.5165H212.643L211.795 71.1034H210.2L210.183 68.6936H201.874L204.15 56.4119Z" fill="#31373F"/>
<path d="M193.942 56.4119H196.219L195.238 61.7135L200.025 56.4119H202.767L197.033 62.4447L200.49 68.6936H197.748L194.939 63.2923L193.942 68.6936H191.665L193.942 56.4119Z" fill="#31373F"/>
<path d="M184.973 65.4694L182.879 56.4119H185.339L186.602 62.6608L190.242 56.4119H192.701L185.273 68.6936H183.112L184.973 65.4694Z" fill="#31373F"/>
<path d="M175.746 56.4119H177.541L180.416 68.6936H177.906L177.175 65.5193H172.804L170.86 68.6936H168.35L175.746 56.4119ZM176.676 63.3422L176.045 59.6194L174.051 63.3422H176.676Z" fill="#31373F"/>
<path d="M163.613 65.2702C162.838 66.5333 161.94 67.4585 160.921 68.0457C159.913 68.6218 158.699 68.9099 157.281 68.9099C156.495 68.9099 155.769 68.7825 155.104 68.5277C154.45 68.2617 153.88 67.9017 153.392 67.4474C152.916 66.982 152.545 66.4336 152.279 65.8021C152.013 65.1594 151.88 64.4559 151.88 63.6914C151.88 62.6056 152.057 61.6029 152.412 60.6833C152.777 59.7637 153.276 58.9715 153.907 58.3067C154.55 57.6419 155.309 57.1267 156.184 56.7611C157.071 56.3844 158.035 56.196 159.076 56.196C159.763 56.196 160.406 56.2847 161.004 56.462C161.613 56.6392 162.156 56.8885 162.633 57.2098C163.12 57.5311 163.53 57.9245 163.862 58.3898C164.206 58.8552 164.455 59.3704 164.61 59.9354H162.068C161.78 59.4368 161.347 59.0546 160.771 58.7887C160.195 58.5228 159.514 58.3898 158.727 58.3898C158.051 58.3898 157.431 58.5061 156.866 58.7388C156.312 58.9715 155.835 59.3039 155.436 59.736C155.049 60.157 154.744 60.6722 154.522 61.2816C154.312 61.8799 154.207 62.5502 154.207 63.2925C154.207 63.78 154.29 64.2343 154.456 64.6553C154.633 65.0764 154.871 65.442 155.171 65.7522C155.481 66.0514 155.846 66.2896 156.267 66.4668C156.688 66.633 157.143 66.7161 157.63 66.7161C158.306 66.7161 158.91 66.6164 159.442 66.417C159.974 66.2065 160.472 65.8242 160.937 65.2702H163.613Z" fill="#31373F"/>
<path d="M133.231 63.7413C133.231 62.6222 133.425 61.6029 133.813 60.6833C134.212 59.7526 134.76 58.9549 135.458 58.2901C136.156 57.6253 136.976 57.1101 137.918 56.7445C138.871 56.3789 139.901 56.196 141.009 56.196C141.785 56.196 142.494 56.329 143.137 56.5949C143.779 56.8497 144.328 57.2098 144.782 57.6752C145.247 58.1405 145.607 58.689 145.862 59.3205C146.117 59.952 146.244 60.6334 146.244 61.3647C146.244 62.4394 146.051 63.4366 145.663 64.3562C145.275 65.2758 144.738 66.0735 144.051 66.7494C143.375 67.4252 142.572 67.9571 141.641 68.3448C140.71 68.7215 139.707 68.9099 138.633 68.9099C137.835 68.9099 137.104 68.7825 136.439 68.5277C135.774 68.2617 135.204 67.9017 134.727 67.4474C134.262 66.982 133.896 66.4336 133.63 65.8021C133.364 65.1705 133.231 64.4836 133.231 63.7413ZM135.558 63.3424C135.558 63.8299 135.641 64.2786 135.807 64.6886C135.974 65.0985 136.206 65.4531 136.505 65.7522C136.816 66.0514 137.181 66.2896 137.602 66.4668C138.034 66.633 138.505 66.7161 139.015 66.7161C139.724 66.7161 140.378 66.5887 140.976 66.3339C141.574 66.0791 142.09 65.7301 142.522 65.2869C142.965 64.8326 143.308 64.3008 143.552 63.6914C143.796 63.082 143.918 62.4283 143.918 61.7303C143.918 61.2428 143.835 60.7941 143.668 60.3841C143.502 59.9742 143.27 59.6252 142.97 59.3371C142.671 59.038 142.306 58.8053 141.874 58.6391C141.453 58.4729 140.982 58.3898 140.461 58.3898C139.763 58.3898 139.115 58.5172 138.516 58.7721C137.918 59.0269 137.397 59.3759 136.954 59.8191C136.522 60.2623 136.179 60.7885 135.924 61.3979C135.68 61.9962 135.558 62.6444 135.558 63.3424Z" fill="#31373F"/>
<path d="M128.814 58.589H126.538L126.936 56.4119H133.767L133.368 58.589H131.091L129.213 68.6936H126.936L128.814 58.589Z" fill="#31373F"/>
<path d="M118.246 56.4119H120.772C122.234 56.4119 123.292 56.6168 123.946 57.0268C124.611 57.4367 124.943 58.1015 124.943 59.0211C124.943 60.4171 124.328 61.4088 123.098 61.996C123.686 62.2508 124.096 62.55 124.328 62.8934C124.572 63.2369 124.694 63.6967 124.694 64.2728C124.694 64.9487 124.567 65.5581 124.312 66.101C124.057 66.6439 123.691 67.1092 123.215 67.497C122.738 67.8737 122.162 68.1673 121.486 68.3778C120.822 68.5884 120.074 68.6936 119.243 68.6936H115.969L118.246 56.4119ZM119.775 66.5165C121.514 66.5165 122.384 65.8849 122.384 64.6219C122.384 63.7909 121.691 63.3754 120.306 63.3754H119.226L118.644 66.5165H119.775ZM120.373 61.1484C121.858 61.1484 122.6 60.6332 122.6 59.6028C122.6 58.9602 122.079 58.6389 121.038 58.6389H120.107L119.642 61.1484H120.373Z" fill="#31373F"/>
<path d="M109.999 56.4119H111.794L114.669 68.6936H112.159L111.428 65.5193H107.057L105.113 68.6936H102.603L109.999 56.4119ZM110.929 63.3422L110.298 59.6194L108.303 63.3422H110.929Z" fill="#31373F"/>
</svg>
