<svg width="23" height="24" viewBox="0 0 23 24" fill="none" xmlns="http://www.w3.org/2000/svg">
<path d="M11.5028 0.75H11.4972C5.29422 0.75 0.25 5.79562 0.25 12C0.25 14.4609 1.04313 16.7419 2.39172 18.5939L0.989688 22.7733L5.31391 21.3909C7.09281 22.5694 9.21484 23.25 11.5028 23.25C17.7058 23.25 22.75 18.203 22.75 12C22.75 5.79703 17.7058 0.75 11.5028 0.75ZM18.0489 16.6364C17.7775 17.4028 16.7003 18.0384 15.8411 18.2241C15.2533 18.3492 14.4855 18.4491 11.9008 17.3775C8.59469 16.0078 6.46563 12.6483 6.29969 12.4303C6.14078 12.2123 4.96375 10.6514 4.96375 9.03703C4.96375 7.42266 5.78359 6.63656 6.11406 6.29906C6.38547 6.02203 6.83406 5.89547 7.26437 5.89547C7.40359 5.89547 7.52875 5.9025 7.64125 5.90812C7.97172 5.92219 8.13766 5.94188 8.35563 6.46359C8.62703 7.1175 9.28797 8.73188 9.36672 8.89781C9.44687 9.06375 9.52703 9.28875 9.41453 9.50672C9.30906 9.73172 9.21625 9.83156 9.05031 10.0228C8.88437 10.2141 8.72687 10.3603 8.56094 10.5656C8.40906 10.7442 8.2375 10.9355 8.42875 11.2659C8.62 11.5894 9.28094 12.668 10.2541 13.5342C11.5098 14.6522 12.528 15.0094 12.8922 15.1613C13.1636 15.2738 13.487 15.247 13.6853 15.0361C13.937 14.7647 14.2478 14.3147 14.5642 13.8717C14.7892 13.5539 15.0733 13.5145 15.3714 13.627C15.6752 13.7325 17.2825 14.527 17.613 14.6916C17.9434 14.8575 18.1614 14.9363 18.2416 15.0755C18.3203 15.2147 18.3203 15.8686 18.0489 16.6364Z" fill="white"/>
</svg>
