<svg width="204" height="46" viewBox="0 0 204 46" fill="none" xmlns="http://www.w3.org/2000/svg">
<path d="M196.572 15.9029V17.9857C196.572 18.7975 196.732 19.3636 197.053 19.684C197.395 20.0044 197.843 20.1647 198.399 20.1647C198.954 20.1647 199.392 20.0044 199.713 19.684C200.054 19.3636 200.225 18.7975 200.225 17.9857V13.051C200.225 12.2393 200.054 11.6732 199.713 11.3527C199.392 11.011 198.954 10.8401 198.399 10.8401C197.843 10.8401 197.395 11.011 197.053 11.3527C196.732 11.6732 196.572 12.2393 196.572 13.051V13.724H193.24L193.881 0.714355H203.173V3.91869H197.053L196.765 9.26993C197.427 8.18045 198.452 7.63572 199.841 7.63572C201.144 7.63572 202.116 8.07364 202.757 8.9495C203.419 9.82535 203.75 11.0964 203.75 12.7627V17.7614C203.75 19.5772 203.301 20.9764 202.404 21.9591C201.528 22.9204 200.225 23.401 198.495 23.401C196.765 23.401 195.451 22.9204 194.554 21.9591C193.678 20.9764 193.24 19.5772 193.24 17.7614V15.9029H196.572Z" fill="#467DD0"/>
<path d="M187.681 6.22581C187.681 5.22178 187.51 4.54887 187.168 4.20708C186.848 3.84392 186.41 3.66234 185.854 3.66234C185.299 3.66234 184.85 3.83324 184.508 4.17504C184.188 4.49547 184.028 5.06157 184.028 5.87333V8.27658H180.695V6.09764C180.695 4.28185 181.133 2.8933 182.009 1.932C182.906 0.949338 184.22 0.458008 185.95 0.458008C187.681 0.458008 188.984 0.949338 189.86 1.932C190.757 2.8933 191.206 4.28185 191.206 6.09764C191.206 7.27256 191.035 8.34067 190.693 9.30197C190.351 10.2419 189.913 11.1071 189.379 11.8975C188.866 12.6665 188.3 13.3822 187.681 14.0444C187.083 14.7066 186.517 15.3368 185.982 15.9349C185.47 16.5331 185.043 17.1205 184.701 17.6973C184.359 18.2527 184.188 18.8402 184.188 19.4597C184.188 19.6733 184.199 19.8335 184.22 19.9404H190.885V23.1447H180.695V20.389C180.695 19.2995 180.866 18.3382 181.208 17.5051C181.55 16.6719 181.977 15.9136 182.49 15.23C183.024 14.525 183.59 13.8735 184.188 13.2753C184.786 12.6558 185.342 12.0043 185.854 11.3207C186.388 10.6371 186.826 9.88943 187.168 9.07767C187.51 8.2659 187.681 7.31528 187.681 6.22581Z" fill="#467DD0"/>
<path d="M170.169 3.53417C170.853 3.53417 171.408 3.4594 171.836 3.30987C172.284 3.16033 172.647 2.95739 172.925 2.70104C173.203 2.4447 173.427 2.14563 173.598 1.80383C173.769 1.46203 173.919 1.09888 174.047 0.714355H176.418V23.1447H172.893V6.03355H170.169V3.53417Z" fill="#467DD0"/>
<path d="M158.522 17.9857C158.522 18.7975 158.683 19.3743 159.003 19.7161C159.345 20.0365 159.793 20.1967 160.349 20.1967C160.904 20.1967 161.342 20.0365 161.663 19.7161C162.004 19.3743 162.175 18.7975 162.175 17.9857V5.87333C162.175 5.06157 162.004 4.49547 161.663 4.17504C161.342 3.83324 160.904 3.66234 160.349 3.66234C159.793 3.66234 159.345 3.83324 159.003 4.17504C158.683 4.49547 158.522 5.06157 158.522 5.87333V17.9857ZM154.998 6.09764C154.998 4.28185 155.457 2.8933 156.375 1.932C157.294 0.949338 158.618 0.458008 160.349 0.458008C162.079 0.458008 163.404 0.949338 164.322 1.932C165.241 2.8933 165.7 4.28185 165.7 6.09764V17.7614C165.7 19.5772 165.241 20.9764 164.322 21.9591C163.404 22.9204 162.079 23.401 160.349 23.401C158.618 23.401 157.294 22.9204 156.375 21.9591C155.457 20.9764 154.998 19.5772 154.998 17.7614V6.09764Z" fill="white"/>
<path d="M142.839 0.714355H153.734V3.91869H150.049V23.1447H146.524V3.91869H142.839V0.714355Z" fill="white"/>
<path d="M134.461 0.714355V18.0178C134.461 18.8295 134.622 19.3956 134.942 19.7161C135.284 20.0365 135.732 20.1967 136.288 20.1967C136.843 20.1967 137.281 20.0365 137.602 19.7161C137.943 19.3956 138.114 18.8295 138.114 18.0178V0.714355H141.447V17.7935C141.447 19.6092 140.998 21.0085 140.101 21.9911C139.225 22.9524 137.922 23.4331 136.192 23.4331C134.461 23.4331 133.148 22.9524 132.25 21.9911C131.374 21.0085 130.937 19.6092 130.937 17.7935V0.714355H134.461Z" fill="white"/>
<path d="M129.455 23.1447H125.899L125.29 19.0752H120.964L120.355 23.1447H117.119L120.708 0.714355H125.866L129.455 23.1447ZM121.412 16.0311H124.809L123.111 4.68773L121.412 16.0311Z" fill="white"/>
<path d="M107.514 6.89872V23.1447H104.341V0.714355H108.763L112.384 14.1405V0.714355H115.524V23.1447H111.904L107.514 6.89872Z" fill="white"/>
<path d="M102.732 23.1447H99.1749L98.5661 19.0752H94.2402L93.6314 23.1447H90.395L93.9839 0.714355H99.1428L102.732 23.1447ZM94.6888 16.0311H98.0854L96.3871 4.68773L94.6888 16.0311Z" fill="white"/>
<path d="M84.6866 0.714355C86.4597 0.714355 87.7735 1.18432 88.628 2.12426C89.5038 3.0642 89.9417 4.44206 89.9417 6.25785V9.1738C89.9417 10.9896 89.5038 12.3675 88.628 13.3074C87.7735 14.2473 86.4597 14.7173 84.6866 14.7173H83.0204V23.1447H79.4956V0.714355H84.6866ZM83.0204 3.91869V11.513H84.6866C85.242 11.513 85.6693 11.3634 85.9684 11.0644C86.2674 10.7653 86.417 10.2099 86.417 9.3981V6.03355C86.417 5.22179 86.2674 4.66637 85.9684 4.3673C85.6693 4.06823 85.242 3.91869 84.6866 3.91869H83.0204Z" fill="white"/>
<path d="M77.8543 23.1447H74.2975L73.6886 19.0752H69.3628L68.754 23.1447H65.5176L69.1064 0.714355H74.2654L77.8543 23.1447ZM69.8114 16.0311H73.208L71.5097 4.68773L69.8114 16.0311Z" fill="white"/>
<path d="M57.2871 19.9404C57.4794 19.9617 57.6823 19.9724 57.8959 19.9724C58.1096 19.9724 58.3125 19.9724 58.5048 19.9724C59.0602 19.9724 59.5301 19.8335 59.9147 19.5558C60.3205 19.2781 60.5235 18.7013 60.5235 17.8255V0.714355H64.0483V17.5692C64.0483 18.7013 63.9094 19.6306 63.6317 20.3569C63.354 21.0832 62.9801 21.66 62.5102 22.0873C62.0402 22.4931 61.4955 22.7815 60.876 22.9524C60.2778 23.1233 59.6476 23.2088 58.9854 23.2088C58.665 23.2088 58.3766 23.2088 58.1202 23.2088C57.8639 23.2088 57.5862 23.1874 57.2871 23.1447V19.9404Z" fill="white"/>
<mask id="path-13-inside-1_180_24717" fill="white">
<path d="M14.5303 11.2402V0.719971H30.5145V23.473H20.1574V11.2402H14.5303Z"/>
</mask>
<path d="M14.5303 0.719971V-99.28H-85.4697V0.719971H14.5303ZM14.5303 11.2402H-85.4697V111.24H14.5303V11.2402ZM20.1574 11.2402H120.157V-88.7598H20.1574V11.2402ZM20.1574 23.473H-79.8426V123.473H20.1574V23.473ZM30.5145 23.473V123.473H130.514V23.473H30.5145ZM30.5145 0.719971H130.514V-99.28H30.5145V0.719971ZM-85.4697 0.719971V11.2402H114.53V0.719971H-85.4697ZM14.5303 111.24H20.1574V-88.7598H14.5303V111.24ZM-79.8426 11.2402V23.473H120.157V11.2402H-79.8426ZM20.1574 123.473H30.5145V-76.527H20.1574V123.473ZM130.514 23.473V0.719971H-69.4855V23.473H130.514ZM30.5145 -99.28H14.5303V100.72H30.5145V-99.28Z" fill="#467DD0" mask="url(#path-13-inside-1_180_24717)"/>
<mask id="path-15-inside-2_180_24717" fill="white">
<path d="M10.3709 24.2073H0.666187C-1.12795 33.7489 2.78653 44.9023 14.2038 45.5739C24.1532 46.1592 29.2366 38.642 30.4327 34.8091H18.5261C8.65831 36.5216 9.71849 29.6713 10.3709 24.2073Z"/>
</mask>
<path d="M0.666187 24.2073V-75.7927H-82.283L-97.6115 5.7278L0.666187 24.2073ZM10.3709 24.2073L109.666 36.0634L123.022 -75.7927H10.3709V24.2073ZM18.5261 34.8091V-65.1909H9.91281L1.42637 -63.7181L18.5261 34.8091ZM30.4327 34.8091L125.893 64.598L166.394 -65.1909H30.4327V34.8091ZM14.2038 45.5739L8.33166 145.401H8.33166L14.2038 45.5739ZM0.666187 124.207H10.3709V-75.7927H0.666187V124.207ZM-88.9238 12.3512C-88.9368 12.4604 -88.947 12.5449 -88.9747 12.7748C-88.9978 12.9666 -89.0313 13.2453 -89.0675 13.5533C-89.1392 14.1621 -89.2447 15.0779 -89.3538 16.1473C-89.5621 18.1882 -89.8718 21.6086 -89.9821 25.7403C-90.1579 32.3236 -90.2579 49.8768 -82.1338 69.8603C-72.24 94.1968 -52.1873 116.825 -22.5946 128.095C2.24758 137.556 24.3141 135.299 35.6259 133.336L1.42637 -63.7181C7.80427 -64.825 26.3028 -67.2961 48.5889 -58.8083C75.6254 -48.5113 94.1337 -27.6165 103.141 -5.46154C110.378 12.3404 110.049 27.2636 109.947 31.0792C109.831 35.4158 109.265 39.4203 109.666 36.0634L-88.9238 12.3512ZM18.5261 134.809H30.4327V-65.1909H18.5261V134.809ZM-65.0273 5.02009C-60.3299 -10.0331 -51.8197 -23.4908 -39.5079 -34.052C-24.8091 -46.6609 -3.69566 -55.6518 20.076 -54.2535L8.33166 145.401C80.5411 149.649 116.609 94.3477 125.893 64.598L-65.0273 5.02009ZM20.076 -54.2535C51.5901 -52.3997 77.5909 -33.2999 90.5941 -9.0698C101.235 10.7575 101.4 29.6231 98.9439 42.6867L-97.6115 5.7278C-101.862 28.3331 -100.636 57.5462 -85.6327 85.5035C-68.2664 117.864 -34.5998 142.876 8.33166 145.401L20.076 -54.2535Z" fill="#467DD0" mask="url(#path-15-inside-2_180_24717)"/>
<mask id="path-17-inside-3_180_24717" fill="white">
<path d="M19.0156 33.912V25.5937H37.528L33.0426 16.2967V0.394043H35.0814L54.083 38.7235H42.9104L40.7085 33.912H19.0156Z"/>
</mask>
<path d="M19.0156 25.5937V-74.4063H-80.9844V25.5937H19.0156ZM19.0156 33.912H-80.9844V133.912H19.0156V33.912ZM40.7085 33.912L131.639 -7.70042L104.92 -66.088H40.7085V33.912ZM42.9104 38.7235L-48.0204 80.3359L-21.3006 138.724H42.9104V38.7235ZM54.083 38.7235V138.724H215.271L143.678 -5.69255L54.083 38.7235ZM35.0814 0.394043L124.676 -44.0221L97.1207 -99.606H35.0814V0.394043ZM33.0426 0.394043V-99.606H-66.9574V0.394043H33.0426ZM33.0426 16.2967H-66.9574V39.1587L-57.0232 59.7495L33.0426 16.2967ZM37.528 25.5937V125.594H196.803L127.594 -17.8592L37.528 25.5937ZM-80.9844 25.5937V33.912H119.016V25.5937H-80.9844ZM19.0156 133.912H40.7085V-66.088H19.0156V133.912ZM-50.2223 75.5244L-48.0204 80.3359L133.841 -2.88885L131.639 -7.70042L-50.2223 75.5244ZM42.9104 138.724H54.083V-61.2765H42.9104V138.724ZM143.678 -5.69255L124.676 -44.0221L-54.5133 44.8101L-35.5117 83.1396L143.678 -5.69255ZM35.0814 -99.606H33.0426V100.394H35.0814V-99.606ZM-66.9574 0.394043V16.2967H133.043V0.394043H-66.9574ZM-57.0232 59.7495L-52.5379 69.0465L127.594 -17.8592L123.108 -27.1561L-57.0232 59.7495ZM37.528 -74.4063H19.0156V125.594H37.528V-74.4063Z" fill="white" mask="url(#path-17-inside-3_180_24717)"/>
<path d="M197.323 33.0237H198.63L197.717 37.9455L201.716 33.0237H203.052L201.735 40.1277H200.428L201.341 35.2058L197.342 40.1277H196.006L197.323 33.0237Z" fill="white"/>
<path d="M190.226 33.0237H191.533L190.62 37.9455L194.619 33.0237H195.955L194.638 40.1277H193.331L194.244 35.2058L190.245 40.1277H188.909L190.226 33.0237Z" fill="white"/>
<path d="M183.692 33.0237H185.009L184.48 35.8884H187.018L187.547 33.0237H188.864L187.547 40.1277H186.23L186.778 37.1477H184.24L183.692 40.1277H182.375L183.692 33.0237Z" fill="white"/>
<path d="M174.542 37.263C174.542 36.6157 174.655 36.0261 174.879 35.4942C175.11 34.9559 175.427 34.4944 175.831 34.1099C176.234 33.7254 176.709 33.4274 177.253 33.2159C177.804 33.0044 178.401 32.8987 179.041 32.8987C179.49 32.8987 179.9 32.9756 180.272 33.1294C180.644 33.2768 180.961 33.4851 181.224 33.7542C181.493 34.0234 181.701 34.3406 181.848 34.7059C181.996 35.0712 182.069 35.4654 182.069 35.8883C182.069 36.51 181.957 37.0867 181.733 37.6187C181.509 38.1506 181.198 38.612 180.801 39.0029C180.41 39.3939 179.945 39.7015 179.407 39.9258C178.868 40.1437 178.288 40.2526 177.667 40.2526C177.205 40.2526 176.782 40.1789 176.398 40.0315C176.013 39.8777 175.683 39.6694 175.408 39.4067C175.138 39.1375 174.927 38.8203 174.773 38.455C174.619 38.0897 174.542 37.6924 174.542 37.263ZM175.888 37.0323C175.888 37.3143 175.936 37.5738 176.032 37.8109C176.129 38.048 176.263 38.2531 176.436 38.4262C176.616 38.5992 176.827 38.737 177.071 38.8395C177.321 38.9356 177.593 38.9837 177.888 38.9837C178.298 38.9837 178.676 38.91 179.022 38.7626C179.368 38.6152 179.666 38.4133 179.916 38.157C180.172 37.8942 180.371 37.5866 180.512 37.2341C180.653 36.8817 180.724 36.5036 180.724 36.0998C180.724 35.8178 180.676 35.5583 180.579 35.3212C180.483 35.084 180.349 34.8822 180.176 34.7155C180.003 34.5425 179.791 34.4079 179.541 34.3118C179.298 34.2157 179.025 34.1676 178.724 34.1676C178.32 34.1676 177.945 34.2413 177.599 34.3887C177.253 34.5361 176.952 34.738 176.696 34.9943C176.446 35.2507 176.247 35.5551 176.1 35.9076C175.959 36.2536 175.888 36.6285 175.888 37.0323Z" fill="white"/>
<path d="M169.197 33.0237H174.235L172.918 40.1277H171.601L172.687 34.283H170.284L169.197 40.1277H167.88L169.197 33.0237Z" fill="white"/>
<path d="M166.28 34.283H165.819C165.594 34.283 165.415 34.2894 165.28 34.3022C165.146 34.315 165.024 34.3343 164.915 34.3599C164.793 34.3919 164.678 34.4464 164.569 34.5233C164.466 34.6002 164.38 34.6899 164.309 34.7925C164.239 34.895 164.181 35.0072 164.136 35.1289C164.098 35.2507 164.079 35.3757 164.079 35.5038C164.079 35.7025 164.123 35.8563 164.213 35.9653C164.309 36.0678 164.428 36.1447 164.569 36.196C164.71 36.2472 164.864 36.2793 165.03 36.2921C165.197 36.2985 165.354 36.3017 165.501 36.3017H165.905L166.28 34.283ZM163.771 37.4168C163.592 37.3656 163.435 37.2854 163.3 37.1765C163.172 37.0676 163.063 36.9426 162.973 36.8016C162.89 36.6542 162.826 36.494 162.781 36.3209C162.742 36.1479 162.723 35.9717 162.723 35.7922C162.723 35.3116 162.839 34.8534 163.069 34.4176C163.306 33.9818 163.636 33.6421 164.059 33.3986C164.181 33.3281 164.306 33.2704 164.434 33.2256C164.562 33.1743 164.703 33.1358 164.857 33.1102C165.017 33.0782 165.194 33.0557 165.386 33.0429C165.585 33.0301 165.809 33.0237 166.059 33.0237H167.828L166.511 40.1277H165.194L165.665 37.561H165.126L163.108 40.1277H161.589L163.771 37.4168Z" fill="white"/>
<path d="M155.041 33.0237H156.502C157.348 33.0237 157.96 33.1422 158.338 33.3794C158.722 33.6165 158.915 34.001 158.915 34.5329C158.915 35.3404 158.559 35.914 157.848 36.2536C158.187 36.401 158.424 36.5741 158.559 36.7728C158.7 36.9714 158.77 37.2374 158.77 37.5706C158.77 37.9616 158.697 38.314 158.549 38.6281C158.402 38.9421 158.19 39.2113 157.915 39.4356C157.639 39.6534 157.306 39.8233 156.915 39.945C156.531 40.0668 156.098 40.1277 155.617 40.1277H153.724L155.041 33.0237ZM155.925 38.8684C156.931 38.8684 157.434 38.5031 157.434 37.7725C157.434 37.2919 157.034 37.0515 156.233 37.0515H155.608L155.271 38.8684H155.925ZM156.271 35.7634C157.13 35.7634 157.559 35.4654 157.559 34.8694C157.559 34.4977 157.258 34.3118 156.656 34.3118H156.117L155.848 35.7634H156.271Z" fill="white"/>
<path d="M145.891 37.263C145.891 36.6157 146.003 36.0261 146.228 35.4942C146.458 34.9559 146.776 34.4944 147.179 34.1099C147.583 33.7254 148.057 33.4274 148.602 33.2159C149.153 33.0044 149.749 32.8987 150.39 32.8987C150.839 32.8987 151.249 32.9756 151.62 33.1294C151.992 33.2768 152.309 33.4851 152.572 33.7542C152.841 34.0234 153.05 34.3406 153.197 34.7059C153.344 35.0712 153.418 35.4654 153.418 35.8883C153.418 36.51 153.306 37.0867 153.082 37.6187C152.857 38.1506 152.547 38.612 152.149 39.0029C151.758 39.3939 151.294 39.7015 150.755 39.9258C150.217 40.1437 149.637 40.2526 149.015 40.2526C148.554 40.2526 148.131 40.1789 147.746 40.0315C147.362 39.8777 147.032 39.6694 146.756 39.4067C146.487 39.1375 146.276 38.8203 146.122 38.455C145.968 38.0897 145.891 37.6924 145.891 37.263ZM147.237 37.0323C147.237 37.3143 147.285 37.5738 147.381 37.8109C147.477 38.048 147.612 38.2531 147.785 38.4262C147.964 38.5992 148.176 38.737 148.419 38.8395C148.669 38.9356 148.942 38.9837 149.236 38.9837C149.647 38.9837 150.025 38.91 150.371 38.7626C150.717 38.6152 151.015 38.4133 151.265 38.157C151.521 37.8942 151.72 37.5866 151.861 37.2341C152.002 36.8817 152.072 36.5036 152.072 36.0998C152.072 35.8178 152.024 35.5583 151.928 35.3212C151.832 35.084 151.697 34.8822 151.524 34.7155C151.351 34.5425 151.14 34.4079 150.89 34.3118C150.646 34.2157 150.374 34.1676 150.073 34.1676C149.669 34.1676 149.294 34.2413 148.948 34.3887C148.602 34.5361 148.301 34.738 148.044 34.9943C147.794 35.2507 147.596 35.5551 147.448 35.9076C147.307 36.2536 147.237 36.6285 147.237 37.0323Z" fill="white"/>
<path d="M140.415 33.0237H141.732L141.203 35.8884H143.741L144.269 33.0237H145.586L144.269 40.1277H142.952L143.5 37.1477H140.963L140.415 40.1277H139.098L140.415 33.0237Z" fill="white"/>
<path d="M131.265 37.263C131.265 36.6157 131.377 36.0261 131.602 35.4942C131.832 34.9559 132.15 34.4944 132.553 34.1099C132.957 33.7254 133.431 33.4274 133.976 33.2159C134.527 33.0044 135.123 32.8987 135.764 32.8987C136.213 32.8987 136.623 32.9756 136.994 33.1294C137.366 33.2768 137.683 33.4851 137.946 33.7542C138.215 34.0234 138.424 34.3406 138.571 34.7059C138.718 35.0712 138.792 35.4654 138.792 35.8883C138.792 36.51 138.68 37.0867 138.456 37.6187C138.231 38.1506 137.921 38.612 137.523 39.0029C137.132 39.3939 136.668 39.7015 136.129 39.9258C135.591 40.1437 135.011 40.2526 134.389 40.2526C133.928 40.2526 133.505 40.1789 133.12 40.0315C132.736 39.8777 132.406 39.6694 132.13 39.4067C131.861 39.1375 131.65 38.8203 131.496 38.455C131.342 38.0897 131.265 37.6924 131.265 37.263ZM132.611 37.0323C132.611 37.3143 132.659 37.5738 132.755 37.8109C132.851 38.048 132.986 38.2531 133.159 38.4262C133.338 38.5992 133.55 38.737 133.793 38.8395C134.043 38.9356 134.316 38.9837 134.61 38.9837C135.021 38.9837 135.399 38.91 135.745 38.7626C136.091 38.6152 136.389 38.4133 136.639 38.157C136.895 37.8942 137.094 37.5866 137.235 37.2341C137.376 36.8817 137.446 36.5036 137.446 36.0998C137.446 35.8178 137.398 35.5583 137.302 35.3212C137.206 35.084 137.071 34.8822 136.898 34.7155C136.725 34.5425 136.514 34.4079 136.264 34.3118C136.02 34.2157 135.748 34.1676 135.447 34.1676C135.043 34.1676 134.668 34.2413 134.322 34.3887C133.976 34.5361 133.675 34.738 133.418 34.9943C133.169 35.2507 132.97 35.5551 132.822 35.9076C132.681 36.2536 132.611 36.6285 132.611 37.0323Z" fill="white"/>
<path d="M125.225 33.0237H126.533L125.619 37.9455L129.618 33.0237H130.955L129.638 40.1277H128.33L129.243 35.2058L125.244 40.1277H123.908L125.225 33.0237Z" fill="white"/>
<path d="M118.335 33.0237H119.652L118.566 38.8684H120.873L121.959 33.0237H123.276L122.19 38.8684H123.247L122.757 41.5216H121.834L121.825 40.1277H117.018L118.335 33.0237Z" fill="white"/>
<path d="M112.43 33.0237H113.747L113.18 36.0902L115.948 33.0237H117.534L114.218 36.5132L116.217 40.1277H114.631L113.007 37.0035L112.43 40.1277H111.113L112.43 33.0237Z" fill="white"/>
<path d="M107.242 38.2628L106.031 33.0237H107.454L108.185 36.6382L110.29 33.0237H111.713L107.416 40.1277H106.166L107.242 38.2628Z" fill="white"/>
<path d="M101.905 33.0237H102.943L104.606 40.1277H103.155L102.732 38.2916H100.204L99.079 40.1277H97.6274L101.905 33.0237ZM102.444 37.0323L102.078 34.879L100.925 37.0323H102.444Z" fill="white"/>
<path d="M94.8874 38.1474C94.4388 38.878 93.9197 39.4131 93.3301 39.7528C92.7469 40.086 92.0451 40.2526 91.2248 40.2526C90.7698 40.2526 90.35 40.1789 89.9655 40.0315C89.5874 39.8777 89.2573 39.6694 88.9754 39.4067C88.6998 39.1375 88.4851 38.8203 88.3313 38.455C88.1775 38.0833 88.1006 37.6763 88.1006 37.2341C88.1006 36.6061 88.2031 36.0261 88.4082 35.4942C88.6197 34.9623 88.9081 34.5041 89.2734 34.1195C89.6451 33.735 90.0841 33.437 90.5904 33.2255C91.103 33.0076 91.6606 32.8987 92.263 32.8987C92.6604 32.8987 93.0321 32.95 93.3781 33.0525C93.7306 33.155 94.0446 33.2992 94.3202 33.4851C94.6022 33.6709 94.8393 33.8984 95.0316 34.1676C95.2302 34.4368 95.3744 34.7348 95.4641 35.0616H93.9934C93.8267 34.7732 93.5768 34.5521 93.2435 34.3983C92.9103 34.2445 92.5162 34.1676 92.0611 34.1676C91.6702 34.1676 91.3113 34.2349 90.9845 34.3695C90.6641 34.5041 90.3885 34.6963 90.1578 34.9463C89.9335 35.1898 89.7572 35.4878 89.6291 35.8403C89.5073 36.1863 89.4464 36.5741 89.4464 37.0034C89.4464 37.2854 89.4945 37.5482 89.5906 37.7917C89.6931 38.0352 89.8309 38.2467 90.004 38.4262C90.1834 38.5992 90.3949 38.737 90.6384 38.8395C90.8819 38.9356 91.1447 38.9837 91.4267 38.9837C91.8176 38.9837 92.1669 38.926 92.4745 38.8107C92.7821 38.6889 93.0705 38.4678 93.3397 38.1474H94.8874Z" fill="white"/>
<path d="M77.314 37.263C77.314 36.6157 77.4261 36.0261 77.6504 35.4942C77.8811 34.9559 78.1984 34.4944 78.6021 34.1099C79.0059 33.7254 79.4801 33.4274 80.0248 33.2159C80.576 33.0044 81.172 32.8987 81.8129 32.8987C82.2615 32.8987 82.6716 32.9756 83.0433 33.1294C83.415 33.2768 83.7322 33.4851 83.995 33.7542C84.2642 34.0234 84.4724 34.3406 84.6198 34.7059C84.7672 35.0712 84.8409 35.4654 84.8409 35.8883C84.8409 36.51 84.7288 37.0867 84.5045 37.6187C84.2802 38.1506 83.9694 38.612 83.572 39.0029C83.1811 39.3939 82.7165 39.7015 82.1781 39.9258C81.6398 40.1437 81.0598 40.2526 80.4382 40.2526C79.9768 40.2526 79.5538 40.1789 79.1693 40.0315C78.7848 39.8777 78.4547 39.6694 78.1791 39.4067C77.91 39.1375 77.6985 38.8203 77.5447 38.455C77.3909 38.0897 77.314 37.6924 77.314 37.263ZM78.6598 37.0323C78.6598 37.3143 78.7079 37.5738 78.804 37.8109C78.9001 38.048 79.0347 38.2531 79.2077 38.4262C79.3872 38.5992 79.5987 38.737 79.8422 38.8395C80.0921 38.9356 80.3645 38.9837 80.6593 38.9837C81.0694 38.9837 81.4476 38.91 81.7936 38.7626C82.1397 38.6152 82.4377 38.4133 82.6876 38.157C82.944 37.8942 83.1426 37.5866 83.2836 37.2341C83.4246 36.8817 83.4951 36.5036 83.4951 36.0998C83.4951 35.8178 83.4471 35.5583 83.3509 35.3212C83.2548 35.084 83.1202 34.8822 82.9472 34.7155C82.7742 34.5425 82.5627 34.4079 82.3127 34.3118C82.0692 34.2157 81.7968 34.1676 81.4956 34.1676C81.0919 34.1676 80.717 34.2413 80.3709 34.3887C80.0248 34.5361 79.7236 34.738 79.4673 34.9943C79.2173 35.2507 79.0187 35.5551 78.8713 35.9076C78.7303 36.2536 78.6598 36.6285 78.6598 37.0323Z" fill="white"/>
<path d="M74.7589 34.283H73.4419L73.6726 33.0237H77.6236L77.3928 34.283H76.0759L74.9896 40.1277H73.6726L74.7589 34.283Z" fill="white"/>
<path d="M68.6456 33.0237H70.1068C70.9527 33.0237 71.5647 33.1422 71.9429 33.3794C72.3274 33.6165 72.5196 34.001 72.5196 34.5329C72.5196 35.3404 72.164 35.914 71.4526 36.2536C71.7923 36.401 72.0294 36.5741 72.164 36.7728C72.3049 36.9714 72.3754 37.2374 72.3754 37.5706C72.3754 37.9616 72.3017 38.314 72.1543 38.6281C72.0069 38.9421 71.7955 39.2113 71.5199 39.4356C71.2443 39.6534 70.9111 39.8233 70.5201 39.945C70.1356 40.0668 69.703 40.1277 69.2224 40.1277H67.3286L68.6456 33.0237ZM69.53 38.8684C70.5362 38.8684 71.0392 38.5031 71.0392 37.7725C71.0392 37.2919 70.6387 37.0515 69.8376 37.0515H69.2128L68.8763 38.8684H69.53ZM69.8761 35.7634C70.7348 35.7634 71.1642 35.4654 71.1642 34.8694C71.1642 34.4977 70.863 34.3118 70.2606 34.3118H69.7223L69.4531 35.7634H69.8761Z" fill="white"/>
<path d="M63.8754 33.0237H64.9136L66.5767 40.1277H65.1251L64.7022 38.2916H62.1739L61.0492 40.1277H59.5977L63.8754 33.0237ZM64.4138 37.0323L64.0485 34.879L62.8949 37.0323H64.4138Z" fill="white"/>
</svg>
